PathFileType	3	(X/Y/Z)	C:\Users\koon_\Desktop\
DataRate	CameraRate	NumFrames	NumMarkers	Units	OrigDataRate	OrigDataStartFrame	OrigNumFrames
100.0	100.0	8	27	mm	100.0	1390	3706	
Frame#	Time	GM:LFHD			GM:RFHD			GM:LBHD			GM:RBHD			GM:C7			GM:T10			GM:CLAV			GM:STRN			GM:RBAK			GM:LSHO			GM:LUPA			GM:LELB			GM:LFRA			GM:LWRA			GM:LWRB			GM:LFIN			GM:RSHO			GM:RUPA			GM:RELB			GM:RFRA			GM:RWRA			GM:RWRB			GM:RFIN			GM:LASI			GM:RASI			GM:LPSI			GM:RPSI			
		X1	Y1	Z1	X2	Y2	Z2	X3	Y3	Z3	X4	Y4	Z4	X5	Y5	Z5	X6	Y6	Z6	X7	Y7	Z7	X8	Y8	Z8	X9	Y9	Z9	X10	Y10	Z10	X11	Y11	Z11	X12	Y12	Z12	X13	Y13	Z13	X14	Y14	Z14	X15	Y15	Z15	X16	Y16	Z16	X17	Y17	Z17	X18	Y18	Z18	X19	Y19	Z19	X20	Y20	Z20	X21	Y21	Z21	X22	Y22	Z22	X23	Y23	Z23	X24	Y24	Z24	X25	Y25	Z25	X26	Y26	Z26	X27	Y27	Z27	
1390	13.89	97.960442	1601.0979	-43.309723	-55.754837	1594.2827	-40.551228	95.933609	1592.5851	-176.21883	-67.172531	1586.9447	-156.1228	26.893349	1425.2156	-228.25121	9.7644243	1227.7412	-272.89038	32.502468	1366.8447	-75.898636	22.258392	1222.8958	-28.037182	-73.091316	1318.2362	-262.26865	192.33757	1394.0952	-165.36002	251.41615	1285.6106	-170.93584	265.32315	1077.6349	-215.0722	237.68852	966.8147	-119.56338	236.05476	897.93176	-92.242271	265.56775	872.46735	-146.2021	248.20795	807.04602	-72.731697	-77.871994	1466.1917	-187.58182	-163.12035	1593.293	-158.94418	-243.73938	1662.1051	-149.47234	-180.0459	1727.9581	-122.27628	-181.12439	1854.2706	-69.940704	-234.59848	1867.948	-96.277443	-177.15369	1947.8186	-55.393173	150.63953	898.77045	-73.154076	-140.89247	907.9115	-64.879539	68.212227	957.3548	-278.68073	-68.932907	950.45337	-275.96616
1391	13.9	98.104378	1601.1237	-43.330925	-55.595558	1594.3567	-40.693298	96.075584	1592.5636	-176.22603	-67.038925	1587.0137	-156.2404	26.893539	1425.2153	-228.25282	9.7948122	1227.7417	-272.89059	32.611828	1366.9171	-75.887001	22.351412	1222.9579	-27.890648	-73.124619	1318.218	-262.2659	192.37152	1394.1112	-165.3896	251.47766	1285.6426	-171.11853	264.96616	1077.5588	-215.16844	237.814	966.81152	-119.61106	236.2	897.96411	-92.324318	265.64471	872.45227	-146.22972	248.38023	807.09064	-72.82975	-78.536102	1465.9413	-187.23032	-163.75121	1592.9675	-158.94066	-245.19946	1661.187	-149.63124	-182.01784	1727.4338	-122.07116	-184.07622	1853.7117	-69.530075	-237.50209	1867.0707	-96.167831	-180.86833	1947.2551	-54.846371	150.80338	898.79968	-73.154335	-140.77028	907.91986	-64.643936	68.216728	957.3548	-278.5336	-69.013046	950.44916	-275.74628
1392	13.91	98.244705	1601.1307	-43.403664	-55.439693	1594.4957	-40.774845	96.264435	1592.5402	-176.2984	-66.387085	1587.2683	-156.46513	26.862871	1425.2142	-228.25262	9.9852858	1227.7124	-272.89294	32.763725	1366.9354	-75.799576	22.523756	1223.0343	-27.82131	-73.079575	1318.132	-262.17767	192.43701	1394.1462	-165.47003	251.54117	1285.712	-171.22665	265.44446	1077.7057	-215.24605	237.92763	966.85431	-119.72981	236.33951	898.00916	-92.384773	265.8226	872.54218	-146.32832	248.53419	807.0694	-72.862679	-79.714821	1465.4846	-185.1974	-165.15907	1592.4349	-158.51102	-246.94508	1660.1752	-149.79013	-184.39738	1726.7959	-121.80708	-187.72754	1853.0054	-69.201424	-240.99347	1865.9989	-96.184875	-185.14537	1946.5421	-54.304996	150.97711	898.7641	-73.160431	-140.65002	907.90118	-64.461098	68.154495	957.40479	-278.44492	-69.047256	950.46234	-275.61249
1393	13.92	98.414833	1601.1407	-43.40818	-55.236172	1594.5906	-40.923294	96.510307	1592.5123	-176.36716	-66.196915	1587.3313	-156.52206	26.862717	1425.1973	-228.25743	10.141733	1227.6887	-272.9046	32.91555	1366.9495	-75.782593	22.649061	1223.0913	-27.807325	-73.071663	1318.0923	-262.18228	192.50218	1394.1693	-165.56706	251.65358	1285.7394	-171.32706	265.57254	1077.715	-215.26743	238.16331	966.79523	-119.74813	236.47813	898.03284	-92.375824	265.88489	872.53851	-146.41484	248.70172	807.09546	-72.947823	-79.355766	1465.6217	-186.66125	-166.88423	1591.6958	-157.88956	-249.01015	1658.8511	-150.03554	-187.186	1725.9642	-121.55099	-191.9128	1852.1327	-68.779854	-245.10539	1864.679	-96.194717	-190.24991	1945.752	-53.74691	151.11028	898.78699	-73.141975	-140.52133	907.89465	-64.237534	68.154419	957.4267	-278.34232	-69.041618	950.48395	-275.41678
1394	13.93	98.619797	1601.0879	-43.506702	-55.370731	1594.618	-40.628891	96.774719	1592.4807	-176.41393	-65.974182	1587.4489	-156.59293	26.835249	1425.1683	-228.32939	10.28267	1227.6642	-272.90146	33.086193	1366.9989	-75.788124	22.805534	1223.1267	-27.750729	-72.971519	1317.9667	-262.12979	192.60579	1394.2063	-165.7197	251.73337	1285.7604	-171.34929	265.67783	1077.7454	-215.4176	238.26476	966.85034	-119.82774	236.67567	898.02313	-92.438835	266.05093	872.57172	-146.5544	248.90501	807.14307	-73.051308	-79.44265	1465.6536	-186.72389	-168.76886	1591.0479	-158.40408	-251.32529	1657.4401	-150.44983	-190.39671	1725.0653	-121.37084	-196.724	1851.0637	-68.473419	-249.87175	1863.1761	-96.116737	-196.40588	1944.7401	-53.13253	151.25215	898.74835	-73.129005	-140.36981	907.89374	-64.036026	68.168724	957.4353	-278.2887	-69.060837	950.53271	-275.27151
1395	13.94	98.937553	1601.0465	-43.577194	-55.116123	1594.7046	-40.804138	97.066322	1592.4111	-176.52086	-65.666733	1587.5005	-156.70143	26.893789	1425.1484	-228.34821	10.442308	1227.5797	-272.84503	33.237778	1366.9576	-75.853584	23.038399	1223.2029	-27.724442	-72.842331	1317.8392	-262.05582	192.72131	1394.2153	-165.84325	251.86798	1285.7902	-171.45216	265.80301	1077.7505	-215.49062	238.46382	966.87854	-119.88058	236.83875	898.0741	-92.513657	266.17511	872.59369	-146.55818	249.0965	807.17682	-73.127274	-80.355911	1465.2355	-186.15637	-170.36188	1590.2949	-158.32198	-253.99239	1655.7791	-150.80034	-194.02983	1724.0479	-121.18898	-202.15581	1849.9022	-68.08683	-255.22083	1861.3973	-96.08886	-202.97281	1943.5309	-52.674759	151.44368	898.79694	-73.054985	-140.24062	907.85651	-63.840374	68.2323	957.45599	-278.21609	-69.030281	950.55743	-275.07407
1396	13.95	99.157234	1601.0089	-43.68401	-54.869858	1594.7917	-40.939049	97.37027	1592.3502	-176.68295	-65.740448	1587.4362	-156.80585	26.920654	1425.121	-228.42738	10.631633	1227.5142	-272.8533	33.399719	1366.9878	-75.854019	23.289471	1223.2638	-27.650848	-72.732216	1317.6304	-262.06412	192.87671	1394.2299	-165.9886	251.98587	1285.7941	-171.59749	266.01236	1077.8035	-215.57593	238.69429	966.93652	-119.95258	237.01259	898.06378	-92.558372	265.96707	872.33856	-146.57022	249.2821	807.18378	-73.1194	-80.903656	1465.0149	-185.79546	-172.867	1589.354	-158.2041	-256.82385	1653.9263	-151.08243	-198.08261	1722.8898	-121.0483	-208.15778	1848.6097	-67.768044	-261.18814	1859.3657	-96.037491	-210.4117	1942.084	-52.122852	151.5421	898.75781	-73.02356	-140.06381	907.83887	-63.638798	68.258286	957.43829	-278.10971	-69.003006	950.55743	-274.8652
1397	13.96	99.500969	1600.9364	-43.845749	-54.528664	1594.9355	-41.146961	97.668167	1592.2648	-176.77905	-65.416626	1587.5511	-156.93022	26.973528	1425.0718	-228.49838	10.849641	1227.4156	-272.84811	33.598602	1366.9664	-75.858215	23.508043	1223.3186	-27.655832	-72.601852	1317.4573	-262.10553	193.02049	1394.2423	-166.16154	252.1801	1285.8292	-171.76587	266.16696	1077.7964	-215.64769	238.84206	966.91125	-120.01626	237.20912	898.10437	-92.628197	266.33496	872.35645	-146.56042	249.465	807.23322	-73.124825	-81.394714	1464.7007	-185.55089	-175.21968	1588.41	-158.08702	-259.97815	1651.821	-151.35622	-202.44609	1721.5581	-120.86153	-214.74048	1846.9839	-67.332085	-267.7356	1857.0923	-95.951981	-218.03084	1940.4683	-51.587387	151.69446	898.75385	-72.92733	-139.80832	907.86877	-63.358932	68.334373	957.42236	-277.97241	-68.908241	950.57806	-274.74414
